<?xml version="1.0" encoding="UTF-8" standalone="no"?><!DOCTYPE svg PUBLIC "-//W3C//DTD SVG 1.1//EN" "http://www.w3.org/Graphics/SVG/1.1/DTD/svg11.dtd"><svg width="100%" height="100%" viewBox="0 0 624 164" version="1.1" xmlns="http://www.w3.org/2000/svg" xmlns:xlink="http://www.w3.org/1999/xlink" xml:space="preserve" xmlns:serif="http://www.serif.com/" style="fill-rule:evenodd;clip-rule:evenodd;stroke-linejoin:round;stroke-miterlimit:2;"><rect id="Artboard1" x="0" y="0" width="623.145" height="163.612" style="fill:none;"/><g id="Layer_1-2"><path d="M105.088,63.211c0,22.206 -14.2,34.805 -35.988,34.805l-17.298,0l0,24.05c0,4.351 -1.392,5.917 -5.917,5.917l-15.871,0c-4.525,-0.069 -6.056,-1.636 -6.056,-5.986l0,-88.022c0,-4.35 1.531,-5.882 6.056,-5.882l38.808,0c21.927,0 36.266,12.774 36.266,35.118Zm-28.818,0c0.016,-0.228 0.024,-0.456 0.024,-0.685c0,-5.365 -4.415,-9.78 -9.78,-9.78c-0.229,0 -0.458,0.008 -0.686,0.024l-14.026,0l0,20.674l13.922,0c0.264,0.022 0.528,0.033 0.793,0.033c5.308,0 9.676,-4.368 9.676,-9.676c0,-0.243 -0.009,-0.486 -0.028,-0.729l0.105,0.139Z" style="fill:#003b71;fill-rule:nonzero;"/><path d="M192.518,127.914l-15.175,0c-7.309,0 -9.432,-1.532 -10.441,-5.917l-3.237,-10.128l-30.454,0l-3.237,10.128c-1.392,4.35 -3.237,5.917 -10.268,5.917l-14.757,0c-4.351,0 -5.186,-1.984 -3.794,-5.778l32.334,-89.205c1.392,-4.072 3.237,-4.907 7.309,-4.907l16.01,0c4.072,0 5.917,0.974 7.309,4.629l32.473,89.483c1.393,3.794 0.14,5.778 -4.072,5.778Zm-43.576,-74.1l-1.392,0c-0.025,6.598 -0.926,13.164 -2.68,19.526l-5.186,16.602l17.403,0l-5.047,-16.602c-1.759,-6.373 -2.798,-12.922 -3.098,-19.526Z" style="fill:#003b71;fill-rule:nonzero;"/><path d="M289.972,33.975l0,88.022c0,4.35 -1.532,5.917 -5.917,5.917l-15.906,0c-2.309,0.279 -4.577,-0.828 -5.777,-2.82l-21.614,-33.343c-5.638,-8.931 -9.81,-18.707 -12.356,-28.957l-1.114,0c3.112,11.836 4.656,24.029 4.594,36.266l0,22.902c0,4.351 -1.531,5.917 -6.056,5.917l-14.165,0c-4.49,0 -6.056,-1.532 -6.056,-5.917l0,-87.987c0,-4.35 1.531,-5.917 6.056,-5.917l16.602,0c2.357,-0.347 4.702,0.77 5.917,2.82l22.971,35.988c6.195,9.71 7.309,15.036 11.799,25.721l1.113,0c-4.42,-14.41 -6.264,-21.371 -6.264,-35.536l0,-23.076c0,-4.35 1.392,-5.917 5.916,-5.917l14.34,0c4.42,0.035 5.917,1.567 5.917,5.917Z" style="fill:#003b71;fill-rule:nonzero;"/><path d="M389.409,76.576l0,18.551c0,19.839 -15.453,34.805 -43.158,34.805c-27.704,0 -43.227,-14.966 -43.227,-39.294l0,-25.304c0,-24.328 15.627,-39.364 43.297,-39.364c21.649,0 35.153,8.841 41.07,24.607c1.392,4.072 0.417,6.195 -3.794,7.588l-15.07,5.36c-4.351,1.392 -6.057,0.556 -7.588,-3.794c-2.541,-6.335 -6.752,-9.154 -14.618,-9.154c-11.103,0 -15.453,4.768 -15.453,14.618l0,25.582c0,9.85 4.35,14.618 15.453,14.618c9.432,0 15.175,-3.481 15.175,-9.571l0,-2.82l-13.47,0c-4.35,0 -5.916,-1.392 -5.916,-5.916l0,-10.442c0,-4.49 1.531,-6.056 5.916,-6.056l35.571,0c4.49,-0.07 5.812,1.497 5.812,5.986Z" style="fill:#003b71;fill-rule:nonzero;"/><path d="M412.485,55.38l0,-18.551c0,-4.35 1.532,-5.917 6.056,-5.917l58.925,0c4.49,0 6.056,1.532 6.056,5.917l0,12.669c0,4.49 -1.531,6.056 -6.056,6.056l-64.981,0l0,-0.174Z" style="fill:#003b71;fill-rule:nonzero;"/><path d="M537.644,25.97c27.843,0 43.158,15.036 43.158,39.364l0,25.304c0,24.363 -15.454,39.364 -43.158,39.364c-27.705,0 -43.298,-15.036 -43.298,-39.364l0,-25.304c-0.035,-24.328 15.454,-39.364 43.298,-39.364Zm0,24.607c-9.85,0 -15.454,4.629 -15.454,13.504l0,27.844c0,8.841 5.639,13.505 15.454,13.505c9.815,0 15.314,-4.629 15.314,-13.505l0,-27.844c0.035,-8.875 -5.639,-13.504 -15.314,-13.504Z" style="fill:#003b71;fill-rule:nonzero;"/><path d="M412.485,102.889l64.946,0c4.49,0 6.056,1.531 6.056,6.056l0,12.669c0,4.351 -1.531,5.917 -6.056,5.917l-58.89,0c-4.49,0 -6.056,-1.532 -6.056,-5.917l0,-18.725Z" style="fill:#003b71;fill-rule:nonzero;"/><path d="M398.876,68.014l0,23.877l49.11,0c0.881,-0.279 1.546,-1.012 1.74,-1.915l0,-20.639c-0.237,-0.766 -0.939,-1.299 -1.74,-1.323l-49.11,0Z" style="fill:#003b71;fill-rule:nonzero;"/></g><circle cx="539.195" cy="76.584" r="56.289" style="fill:#0b3d91;"/><g><circle cx="535.872" cy="31.106" r="0.631" style="fill:#fff;"/><circle cx="542.35" cy="31.948" r="0.631" style="fill:#fff;"/><circle cx="550.848" cy="43.391" r="0.631" style="fill:#fff;"/><circle cx="504.235" cy="102.288" r="0.631" style="fill:#fff;"/><circle cx="505.876" cy="107.337" r="0.631" style="fill:#fff;"/><circle cx="498.051" cy="103.046" r="0.473" style="fill:#fff;"/><circle cx="523.713" cy="112.963" r="0.474" style="fill:#fff;"/><circle cx="563.963" cy="104.602" r="0.473" style="fill:#fff;"/><circle cx="575.66" cy="91.897" r="0.474" style="fill:#fff;"/><circle cx="518.329" cy="47.082" r="0.473" style="fill:#fff;"/><circle cx="531.202" cy="37.627" r="0.473" style="fill:#fff;"/><circle cx="529.804" cy="36.702" r="0.473" style="fill:#fff;"/><circle cx="528.542" cy="35.776" r="0.473" style="fill:#fff;"/><circle cx="520.348" cy="49.523" r="0.473" style="fill:#fff;"/><circle cx="539.31" cy="24.922" r="0.473" style="fill:#fff;"/><circle cx="542.425" cy="38.553" r="0.473" style="fill:#fff;"/><circle cx="537.512" cy="35.891" r="0.473" style="fill:#fff;"/><circle cx="529.098" cy="39.511" r="0.473" style="fill:#fff;"/><circle cx="566.204" cy="117.087" r="0.473" style="fill:#fff;"/><circle cx="503.436" cy="105.486" r="0.474" style="fill:#fff;"/><circle cx="536.334" cy="111.586" r="0.474" style="fill:#fff;"/><circle cx="513.227" cy="105.107" r="0.474" style="fill:#fff;"/><circle cx="517.319" cy="111.786" r="0.474" style="fill:#fff;"/><circle cx="547.441" cy="107.579" r="0.473" style="fill:#fff;"/><circle cx="564.047" cy="98.208" r="0.473" style="fill:#fff;"/><circle cx="576.637" cy="103.96" r="0.473" style="fill:#fff;"/><circle cx="580.928" cy="106.706" r="0.473" style="fill:#fff;"/><circle cx="581.634" cy="99.217" r="0.473" style="fill:#fff;"/><circle cx="519.033" cy="88.616" r="0.473" style="fill:#fff;"/><circle cx="519.212" cy="99.47" r="0.631" style="fill:#fff;"/><circle cx="522.998" cy="107.463" r="0.631" style="fill:#fff;"/><circle cx="568.349" cy="99.133" r="0.631" style="fill:#fff;"/><circle cx="584.672" cy="98.208" r="0.631" style="fill:#fff;"/><circle cx="576.595" cy="94.758" r="0.631" style="fill:#fff;"/><circle cx="568.349" cy="95.094" r="0.631" style="fill:#fff;"/><path d="M551.341,30.711l1.569,-0.15l-1.567,-0.088c-0.049,-0.303 -0.291,-0.54 -0.597,-0.58l-0.15,-1.562l-0.09,1.575c-0.283,0.063 -0.5,0.3 -0.535,0.595l-1.605,0.145l1.616,0.087c0.059,0.271 0.277,0.483 0.552,0.533l0.146,1.61l0.086,-1.607c0.29,-0.049 0.52,-0.272 0.575,-0.558Z" style="fill:#fff;fill-rule:nonzero;"/><path d="M524.856,48.181l1.57,-0.15l-1.567,-0.088c-0.047,-0.303 -0.291,-0.54 -0.597,-0.579l-0.15,-1.563l-0.089,1.575c-0.284,0.063 -0.502,0.3 -0.537,0.595l-1.604,0.146l1.616,0.087c0.058,0.27 0.277,0.482 0.552,0.532l0.146,1.61l0.087,-1.607c0.29,-0.047 0.52,-0.272 0.573,-0.558Z" style="fill:#fff;fill-rule:nonzero;"/><path d="M583.523,94.371l1.569,-0.15l-1.567,-0.089c-0.047,-0.303 -0.291,-0.54 -0.597,-0.579l-0.15,-1.562l-0.088,1.575c-0.284,0.063 -0.501,0.3 -0.536,0.594l-1.604,0.146l1.615,0.087c0.059,0.271 0.278,0.483 0.553,0.533l0.145,1.61l0.087,-1.607c0.288,-0.048 0.518,-0.271 0.573,-0.558Z" style="fill:#fff;fill-rule:nonzero;"/><path d="M519.556,118.522l1.569,-0.151l-1.567,-0.088c-0.049,-0.303 -0.291,-0.54 -0.597,-0.579l-0.15,-1.561l-0.088,1.574c-0.285,0.063 -0.502,0.3 -0.537,0.594l-1.605,0.146l1.616,0.087c0.059,0.271 0.277,0.484 0.552,0.533l0.146,1.61l0.087,-1.607c0.289,-0.048 0.52,-0.272 0.574,-0.558Z" style="fill:#fff;fill-rule:nonzero;"/><path d="M578.537,106.742l1.569,-0.15l-1.566,-0.088c-0.048,-0.303 -0.292,-0.54 -0.597,-0.58l-0.15,-1.562l-0.089,1.574c-0.283,0.063 -0.5,0.3 -0.535,0.594l-1.605,0.146l1.616,0.087c0.059,0.271 0.277,0.482 0.552,0.533l0.146,1.61l0.087,-1.607c0.288,-0.047 0.519,-0.271 0.572,-0.557Z" style="fill:#fff;fill-rule:nonzero;"/><path d="M552.544,63.1c-6.545,2.544 -12.928,4.815 -18.315,6.5c-10.945,3.427 -40.891,12.705 -58.981,24.401l1.514,0.589c11.023,-6.227 18.187,-8.183 25.074,-10.35c7.488,-2.356 31.697,-8.021 42.658,-11.106c3.704,-1.042 8.041,-2.406 12.635,-4.067c-1.068,-1.49 -2.196,-2.985 -3.382,-4.477c-0.397,-0.504 -0.799,-1 -1.203,-1.49Zm7.996,11.021c-1.585,1.07 -2.913,1.924 -3.843,2.463c-5.384,3.113 -31.637,21.035 -37.61,25.157c-5.972,4.123 -22.549,19.773 -27.429,24.317l-0.168,1.849c15.734,-14.135 20.67,-17.621 26.924,-22.379c7.741,-5.89 23.754,-16.786 29.196,-20.278c5.203,-3.337 9.895,-6.407 14.106,-9.216c-0.068,-0.115 -0.137,-0.23 -0.206,-0.346c-0.317,-0.521 -0.641,-1.042 -0.97,-1.567Zm24.595,-25.976c-7.665,4.493 -19.746,9.915 -31.467,14.516c0.281,0.344 0.56,0.69 0.838,1.04c1.309,1.649 2.545,3.309 3.707,4.971c9.214,-3.394 19.323,-7.949 27.344,-13.461c-3.821,3.621 -16.455,13.063 -24.158,18.325c0.397,0.647 0.782,1.293 1.153,1.937c11.67,-7.809 19.523,-13.558 24.099,-17.401c6.311,-5.301 20.698,-17.165 26.167,-33.067c-9.593,12.202 -20.935,19.184 -27.683,23.14Z" style="fill:#fc3d21;fill-rule:nonzero;"/><path d="M531.952,90.521c-1.241,-1.562 -2.957,-3.654 -4.246,-5.277c-1.724,-2.169 -3.318,-4.361 -4.779,-6.55c-0.477,0.119 -0.952,0.239 -1.428,0.358c1.764,2.753 3.723,5.501 5.858,8.188c1.559,1.963 2.977,3.544 3.703,4.527c0.147,0.199 0.439,0.639 0.833,1.225c0.455,-0.308 0.913,-0.62 1.376,-0.934c-0.447,-0.486 -0.889,-0.998 -1.317,-1.537Zm9.059,8.224c-1.019,-0.965 -3.492,-2.576 -6.065,-4.994c-0.568,0.39 -1.141,0.785 -1.716,1.183c1.661,2.342 3.925,5.219 5.697,6.057c2.67,1.265 3.39,-1.01 2.084,-2.246Zm13.495,-35.044c-14.713,-18.519 -32.687,-28.693 -40.436,-22.536c-6.019,4.782 -3.548,18.758 4.748,33.439c0.429,-0.148 0.854,-0.292 1.275,-0.435c-8.374,-14.304 -10.665,-27.596 -4.988,-32.108c7.133,-5.668 24.358,4.545 38.645,22.527c2.957,3.722 5.557,7.458 7.759,11.1c8.431,13.953 11.018,26.571 5.193,31.722c-1.783,1.576 -7.229,2.194 -14.364,-1.017c-0.1,0.125 0.06,0.463 0.185,0.545c6.159,2.477 12.058,3.421 15.037,1.055c7.157,-5.688 1.659,-25.773 -13.054,-44.292Z" style="fill:#fff;fill-rule:nonzero;"/><path d="M491.404,65.898l9.424,0l7.909,13.42l0,-10.475c0,-1.178 -1.494,-2.714 -2.02,-2.945l6.521,0c-0.4,0.105 -1.683,1.662 -1.683,2.945l0,15.397c0,0.947 1.368,2.251 2.02,2.756l-9.087,0l-8.036,-13.483l0,10.601c0,1.052 1.031,2.062 2.104,2.924l-6.942,0c0.989,-0.421 1.936,-1.746 2.02,-2.798c0.084,-1.051 0,-14.619 0,-15.208c0,-1.283 -1.241,-2.335 -2.23,-3.134Z" style="fill:#fff;fill-rule:nonzero;"/><path d="M577.605,86.996l12.536,0c-0.694,-0.168 -1.472,-0.989 -1.893,-2.083c-0.42,-1.093 -7.067,-19.015 -7.067,-19.015l-4.767,0c-1.352,0.973 -2.8,2 -4.347,3.081c-0.004,0.039 -0.008,0.078 -0.015,0.116c-0.208,1.262 -3.938,14.772 -4.165,15.44c-0.316,0.925 -1.936,1.956 -2.588,2.503l6.753,0c-0.674,-0.757 -1.221,-1.493 -1.094,-2.335c0.126,-0.841 0.505,-2.524 0.505,-2.524l6.983,0c0.316,0.841 0.551,1.597 0.673,2.314c0.147,0.862 -0.736,1.83 -1.514,2.503Zm-5.511,-7.509l2.355,-7.699l3.114,7.699l-5.469,0Zm-1.062,-12.821c0.346,-0.255 0.694,-0.511 1.041,-0.768l-1.83,0c0.182,0.168 0.483,0.433 0.789,0.768Z" style="fill:#fff;fill-rule:nonzero;"/><path d="M523.082,84.703c0.127,-0.841 0.505,-2.524 0.505,-2.524l6.984,0c0.315,0.841 0.551,1.597 0.673,2.314c0.147,0.862 -0.736,1.83 -1.515,2.503l11.038,0c0.23,-0.154 0.459,-0.309 0.687,-0.461c-0.427,-0.379 -0.821,-0.947 -1.081,-1.622c-0.421,-1.093 -7.068,-19.015 -7.068,-19.015l-10.938,0c0.526,0.484 2.041,1.788 1.809,3.197c-0.206,1.262 -3.937,14.772 -4.165,15.44c-0.315,0.925 -1.935,1.956 -2.587,2.503l6.752,0c-0.673,-0.757 -1.22,-1.493 -1.094,-2.335Zm3.492,-12.915l3.113,7.699l-5.469,0l2.356,-7.699Z" style="fill:#fff;fill-rule:nonzero;"/><path d="M561.21,76.371c-2.058,1.371 -4.231,2.803 -6.519,4.298c1.026,0.497 1.844,1.123 1.922,1.931c0.146,1.517 -2.902,2.25 -5.658,1.935c-0.551,-0.063 -1.092,-0.208 -1.608,-0.401c-0.573,0.369 -1.15,0.74 -1.737,1.116c-0.596,0.383 -1.319,0.854 -2.145,1.398l0,2.178c0.547,-1.073 1.743,-2.033 2.671,-2.082c0.4,-0.022 1.788,1.262 7.51,0.946c2.776,-0.153 8.14,-3.113 8.056,-6.521c-0.05,-2.013 -1.102,-3.584 -2.492,-4.798Zm-15.747,5.261l0,2.219c0.507,-0.338 1.006,-0.671 1.495,-0.995c-0.77,-0.535 -1.315,-1.036 -1.495,-1.224Zm13.791,-6.654c-0.533,-0.315 -1.073,-0.592 -1.59,-0.836c-2.693,-1.262 -5.511,-1.493 -6.1,-3.197c-0.415,-1.202 0.757,-2.314 3.618,-2.272c2.86,0.042 5.511,1.746 6.226,2.356l0,-5.427c-0.21,0.21 -1.133,1.269 -1.977,1.094c-1.62,-0.337 -4.376,-0.776 -7.531,-0.757c-3.618,0.021 -6.731,2.817 -6.836,6.352c-0.147,4.943 3.807,6.29 6.037,7.068c0.23,0.08 0.492,0.165 0.777,0.257c2.138,-1.392 3.829,-2.463 4.819,-3.034c0.665,-0.383 1.536,-0.932 2.557,-1.604Z" style="fill:#fff;fill-rule:nonzero;"/></g></svg>