<?xml version="1.0" encoding="UTF-8" standalone="no"?><!DOCTYPE svg PUBLIC "-//W3C//DTD SVG 1.1//EN" "http://www.w3.org/Graphics/SVG/1.1/DTD/svg11.dtd"><svg width="100%" height="100%" viewBox="0 0 755 175" version="1.1" xmlns="http://www.w3.org/2000/svg" xmlns:xlink="http://www.w3.org/1999/xlink" xml:space="preserve" xmlns:serif="http://www.serif.com/" style="fill-rule:evenodd;clip-rule:evenodd;stroke-linejoin:round;stroke-miterlimit:1.41421;"><rect id="Artboard1" x="0" y="0" width="754.708" height="174.055" style="fill:none;"/><g><path d="M79.132,31.616c-0.054,0.038 -0.114,0.077 -0.168,0.12c0.016,-0.006 0.032,-0.016 0.049,-0.022c0.043,-0.032 0.076,-0.065 0.12,-0.098" style="fill:#002b7c;fill-rule:nonzero;"/><path d="M131.63,76.996c0,10.37 -3.657,19.903 -9.745,27.384c1.61,0.577 3.363,1.295 5.038,2.078c6.225,-8.177 9.93,-18.39 9.93,-29.462c0,-19.88 -11.916,-36.965 -28.984,-44.528c1.518,2.214 2.617,4.766 3.221,7.622c12.318,7.683 20.539,21.35 20.539,36.906" style="fill:#002b7c;fill-rule:nonzero;"/><path d="M87.002,28.789c0.452,-0.016 0.898,-0.033 1.377,-0.011c-0.278,-0.011 -0.555,-0.022 -0.827,-0.022c-0.191,0 -0.365,0.027 -0.55,0.033" style="fill:#002b7c;fill-rule:nonzero;"/><path d="M44.701,76.996c0,-12.683 5.462,-24.109 14.151,-32.064c1.948,-6.393 6.97,-9.935 10.98,-11.453c0.403,-0.702 0.881,-1.431 1.42,-2.16c-18.553,6.877 -31.78,24.729 -31.78,45.676c0,13.434 5.441,25.594 14.24,34.403c0.859,-1.121 1.958,-2.476 3.346,-4.092c-7.639,-7.835 -12.356,-18.532 -12.356,-30.311" style="fill:#002b7c;fill-rule:nonzero;"/><path d="M88.158,120.467c-2.073,0 -4.113,-0.157 -6.115,-0.44c-4.669,0.587 -8.602,1.442 -11.687,2.296c5.517,2.165 11.518,3.373 17.802,3.373c7.944,0 15.43,-1.915 22.057,-5.288c-4.962,-0.697 -9.456,-0.958 -12.318,-1.056c-3.134,0.724 -6.387,1.115 -9.739,1.115" style="fill:#002b7c;fill-rule:nonzero;"/><path d="M63.922,51.59c0,0 1.513,-5.223 14.424,-8.928c0,0 -3.434,-0.827 -4.946,-4.125c0,0 -10.028,2.063 -9.478,13.053" style="fill:#002b7c;fill-rule:nonzero;"/><path d="M109.469,73.43c4.968,-20.343 -3.912,-30.914 -3.912,-30.914c-1.099,-7.552 -6.73,-13.189 -17.171,-13.739c-10.441,-0.549 -14.288,9.342 -14.288,9.342c0,0 11.399,-5.767 17.171,-1.92c5.767,3.846 3.433,14.423 3.433,14.423c11.04,11.91 -8.678,35.159 -21.644,48.288c-5.696,-23.662 7.77,-48.425 7.77,-48.425c-1.926,3.02 -3.161,3.57 -12.775,16.486c-9.62,12.911 -3.711,24.179 -3.711,24.179c-0.963,-6.186 2.198,-10.305 2.884,-10.305c0.685,0 1.099,3.025 1.099,3.025c-0.354,9.701 2.241,15.419 2.97,16.818c-13.118,13.21 -15.196,17.661 -15.196,17.661c0.272,0.827 1.649,-0.136 3.57,-1.507c1.926,-1.376 12.231,-8.727 28.988,-18.961c9.935,-6.067 18.684,-15.73 20.811,-24.452" style="fill:#002b7c;fill-rule:nonzero;"/><path d="M118.885,109.561c-4.674,-1.507 -8.374,-3.15 -16.007,-3.433c-5.561,-0.207 -4.946,-4.325 -4.325,-6.181c1.801,-5.403 3.982,-7.971 3.982,-7.971c0,0 -24.658,17.243 -42.656,27.82c0,0 13.118,-6.589 34.827,-6.387c0,0 11.954,-0.136 23.63,2.475c0,0 10.991,2.198 12.226,0.686c1.24,-1.513 -7.003,-5.496 -11.677,-7.008" style="fill:#002b7c;fill-rule:nonzero;"/><path d="M82.768,42.258c1.436,0 2.601,-1.17 2.601,-2.601c0,-1.436 -1.165,-2.601 -2.601,-2.601c-1.437,0 -2.601,1.165 -2.601,2.601c0,1.431 1.164,2.601 2.601,2.601" style="fill:#002b7c;fill-rule:nonzero;"/><path d="M64.744,146.695l-2.285,0l0,15.382l2.285,0l0,-15.382Zm8.276,5.621l0,-3.33c0,-2.008 -1.573,-2.59 -3.004,-2.59c-1.403,0 -2.976,0.582 -2.976,2.59l0,10.805c0,2.008 1.573,2.59 2.976,2.59c1.431,0 3.004,-0.582 3.004,-2.59l0,-3.525l-2.285,0l0,3.33c0,0.778 -0.24,0.952 -0.697,0.952c-0.473,0 -0.713,-0.174 -0.713,-0.952l0,-10.414c0,-0.778 0.24,-0.953 0.713,-0.953c0.457,0 0.697,0.175 0.697,0.953l0,3.134l2.285,0Zm7.432,9.761l0,-2.003l-2.851,0l0,-5.408l2.699,0l0,-2.008l-2.699,0l0,-3.955l2.807,0l0,-2.008l-5.092,0l0,15.382l5.136,0Zm4.108,-5.833l-2.291,0l0,3.547c0,2.008 1.578,2.59 2.982,2.59c1.425,0 2.998,-0.582 2.998,-2.59l0,-2.725c0,-1.557 -3.689,-4.881 -3.689,-5.985l0,-1.899c0,-0.778 0.234,-0.953 0.713,-0.953c0.451,0 0.691,0.175 0.691,0.953l0,3.047l2.285,0l0,-3.243c0,-2.008 -1.573,-2.59 -2.998,-2.59c-1.404,0 -2.982,0.582 -2.982,2.59l0,2.203c0,2.509 3.695,4.625 3.695,6.785l0,1.622c0,0.778 -0.24,0.952 -0.691,0.952c-0.479,0 -0.713,-0.174 -0.713,-0.952l0,-3.352Zm8.232,-0.343l0.56,-6.398l0.153,0l0.473,6.398l-1.186,0Zm-2.786,6.176l2.073,0l0.495,-4.168l1.622,0l0.43,4.168l2.312,0l-1.752,-15.382l-3.433,0l-1.747,15.382Zm7.149,-15.382l0,2.008l2.014,0l0,13.374l2.285,0l0,-13.374l1.986,0l0,-2.008l-6.285,0Zm6.013,9.679l2.742,0l0,-1.556l-2.742,0l0,1.556Zm7.28,3.869c0.103,-3.39 3.476,-5.898 3.476,-10.18c0,-1.812 -0.457,-3.537 -2.655,-3.537c-2.312,0 -3.33,0.882 -3.33,3.259l0,2.422l2.291,0l0,-2.705c0,-0.691 0.218,-1.142 0.778,-1.142c0.452,0 0.626,0.321 0.626,1.142l0,1.426c0,2.661 -3.695,5.686 -3.695,10.18l0,0.968l5.898,0l0,-1.833l-3.389,0Z" style="fill:#002b7c;fill-rule:nonzero;"/></g><g id="Layer_1-2"><path d="M236.652,63.211c0,22.206 -14.201,34.805 -35.989,34.805l-17.298,0l0,24.05c0,4.351 -1.392,5.917 -5.916,5.917l-15.871,0c-4.525,-0.069 -6.057,-1.636 -6.057,-5.986l0,-88.022c0,-4.35 1.532,-5.882 6.057,-5.882l38.807,0c21.927,0 36.267,12.774 36.267,35.118Zm-28.819,0c0.016,-0.228 0.024,-0.456 0.024,-0.685c0,-5.365 -4.415,-9.78 -9.78,-9.78c-0.229,0 -0.457,0.008 -0.685,0.024l-14.027,0l0,20.674l13.922,0c0.264,0.022 0.529,0.033 0.794,0.033c5.308,0 9.675,-4.368 9.675,-9.676c0,-0.243 -0.009,-0.486 -0.027,-0.729l0.104,0.139Z" style="fill:#003b71;fill-rule:nonzero;"/><path d="M324.082,127.914l-15.175,0c-7.309,0 -9.432,-1.532 -10.442,-5.917l-3.237,-10.128l-30.454,0l-3.237,10.128c-1.392,4.35 -3.237,5.917 -10.267,5.917l-14.758,0c-4.35,0 -5.185,-1.984 -3.793,-5.778l32.334,-89.205c1.392,-4.072 3.236,-4.907 7.309,-4.907l16.01,0c4.072,0 5.917,0.974 7.309,4.629l32.473,89.483c1.392,3.794 0.139,5.778 -4.072,5.778Zm-43.576,-74.1l-1.392,0c-0.025,6.598 -0.926,13.164 -2.68,19.526l-5.186,16.602l17.402,0l-5.046,-16.602c-1.759,-6.373 -2.798,-12.922 -3.098,-19.526Z" style="fill:#003b71;fill-rule:nonzero;"/><path d="M421.535,33.975l0,88.022c0,4.35 -1.531,5.917 -5.916,5.917l-15.906,0c-2.309,0.279 -4.577,-0.828 -5.778,-2.82l-21.614,-33.343c-5.638,-8.931 -9.809,-18.707 -12.356,-28.957l-1.113,0c3.111,11.836 4.656,24.029 4.594,36.266l0,22.902c0,4.351 -1.531,5.917 -6.056,5.917l-14.166,0c-4.49,0 -6.056,-1.532 -6.056,-5.917l0,-87.987c0,-4.35 1.532,-5.917 6.056,-5.917l16.602,0c2.357,-0.347 4.702,0.77 5.917,2.82l22.971,35.988c6.196,9.71 7.309,15.036 11.799,25.721l1.114,0c-4.42,-14.41 -6.265,-21.371 -6.265,-35.536l0,-23.076c0,-4.35 1.392,-5.917 5.917,-5.917l14.34,0c4.42,0.035 5.916,1.567 5.916,5.917Z" style="fill:#003b71;fill-rule:nonzero;"/><path d="M520.973,76.576l0,18.551c0,19.839 -15.453,34.805 -43.158,34.805c-27.705,0 -43.228,-14.966 -43.228,-39.294l0,-25.304c0,-24.328 15.628,-39.364 43.297,-39.364c21.649,0 35.153,8.841 41.07,24.607c1.392,4.072 0.418,6.195 -3.793,7.588l-15.071,5.36c-4.351,1.392 -6.056,0.556 -7.587,-3.794c-2.541,-6.335 -6.753,-9.154 -14.619,-9.154c-11.102,0 -15.453,4.768 -15.453,14.618l0,25.582c0,9.85 4.351,14.618 15.453,14.618c9.433,0 15.175,-3.481 15.175,-9.571l0,-2.82l-13.469,0c-4.351,0 -5.917,-1.392 -5.917,-5.916l0,-10.442c0,-4.49 1.531,-6.056 5.917,-6.056l35.571,0c4.489,-0.07 5.812,1.497 5.812,5.986Z" style="fill:#003b71;fill-rule:nonzero;"/><path d="M544.049,55.38l0,-18.551c0,-4.35 1.531,-5.917 6.056,-5.917l58.924,0c4.49,0 6.056,1.532 6.056,5.917l0,12.669c0,4.49 -1.531,6.056 -6.056,6.056l-64.98,0l0,-0.174Z" style="fill:#003b71;fill-rule:nonzero;"/><path d="M669.207,25.97c27.844,0 43.158,15.036 43.158,39.364l0,25.304c0,24.363 -15.453,39.364 -43.158,39.364c-27.705,0 -43.297,-15.036 -43.297,-39.364l0,-25.304c-0.035,-24.328 15.453,-39.364 43.297,-39.364Zm0,24.607c-9.85,0 -15.453,4.629 -15.453,13.504l0,27.844c0,8.841 5.638,13.505 15.453,13.505c9.815,0 15.314,-4.629 15.314,-13.505l0,-27.844c0.035,-8.875 -5.638,-13.504 -15.314,-13.504Z" style="fill:#003b71;fill-rule:nonzero;"/><path d="M544.049,102.889l64.946,0c4.489,0 6.056,1.531 6.056,6.056l0,12.669c0,4.351 -1.532,5.917 -6.056,5.917l-58.89,0c-4.49,0 -6.056,-1.532 -6.056,-5.917l0,-18.725Z" style="fill:#003b71;fill-rule:nonzero;"/><path d="M530.44,68.014l0,23.877l49.11,0c0.88,-0.279 1.546,-1.012 1.74,-1.915l0,-20.639c-0.237,-0.766 -0.939,-1.299 -1.74,-1.323l-49.11,0Z" style="fill:#003b71;fill-rule:nonzero;"/></g><circle cx="670.759" cy="76.584" r="56.289" style="fill:#0b3d91;"/><g><circle cx="667.435" cy="31.106" r="0.631" style="fill:#fff;"/><circle cx="673.914" cy="31.948" r="0.631" style="fill:#fff;"/><circle cx="682.412" cy="43.391" r="0.631" style="fill:#fff;"/><circle cx="635.799" cy="102.288" r="0.631" style="fill:#fff;"/><circle cx="637.439" cy="107.337" r="0.631" style="fill:#fff;"/><circle cx="629.614" cy="103.046" r="0.473" style="fill:#fff;"/><circle cx="655.277" cy="112.963" r="0.474" style="fill:#fff;"/><circle cx="695.526" cy="104.602" r="0.473" style="fill:#fff;"/><circle cx="707.223" cy="91.897" r="0.474" style="fill:#fff;"/><circle cx="649.892" cy="47.082" r="0.473" style="fill:#fff;"/><circle cx="662.765" cy="37.627" r="0.473" style="fill:#fff;"/><circle cx="661.367" cy="36.702" r="0.473" style="fill:#fff;"/><circle cx="660.105" cy="35.776" r="0.473" style="fill:#fff;"/><circle cx="651.911" cy="49.523" r="0.473" style="fill:#fff;"/><circle cx="670.874" cy="24.922" r="0.473" style="fill:#fff;"/><circle cx="673.988" cy="38.553" r="0.473" style="fill:#fff;"/><circle cx="669.076" cy="35.891" r="0.473" style="fill:#fff;"/><circle cx="660.662" cy="39.511" r="0.473" style="fill:#fff;"/><circle cx="697.767" cy="117.087" r="0.473" style="fill:#fff;"/><circle cx="634.999" cy="105.486" r="0.474" style="fill:#fff;"/><circle cx="667.898" cy="111.586" r="0.474" style="fill:#fff;"/><circle cx="644.79" cy="105.107" r="0.474" style="fill:#fff;"/><circle cx="648.882" cy="111.786" r="0.474" style="fill:#fff;"/><circle cx="679.004" cy="107.579" r="0.473" style="fill:#fff;"/><circle cx="695.611" cy="98.208" r="0.473" style="fill:#fff;"/><circle cx="708.201" cy="103.96" r="0.473" style="fill:#fff;"/><circle cx="712.492" cy="106.706" r="0.473" style="fill:#fff;"/><circle cx="713.197" cy="99.217" r="0.473" style="fill:#fff;"/><circle cx="650.596" cy="88.616" r="0.473" style="fill:#fff;"/><circle cx="650.775" cy="99.47" r="0.631" style="fill:#fff;"/><circle cx="654.562" cy="107.463" r="0.631" style="fill:#fff;"/><circle cx="699.913" cy="99.133" r="0.631" style="fill:#fff;"/><circle cx="716.236" cy="98.208" r="0.631" style="fill:#fff;"/><circle cx="708.159" cy="94.758" r="0.631" style="fill:#fff;"/><circle cx="699.913" cy="95.094" r="0.631" style="fill:#fff;"/><path d="M682.904,30.711l1.569,-0.15l-1.566,-0.088c-0.049,-0.303 -0.292,-0.54 -0.597,-0.58l-0.151,-1.562l-0.089,1.575c-0.284,0.063 -0.501,0.3 -0.536,0.595l-1.604,0.145l1.615,0.087c0.059,0.271 0.278,0.483 0.553,0.533l0.146,1.61l0.085,-1.607c0.29,-0.049 0.52,-0.272 0.575,-0.558Z" style="fill:#fff;fill-rule:nonzero;"/><path d="M656.42,48.181l1.569,-0.15l-1.566,-0.088c-0.048,-0.303 -0.292,-0.54 -0.598,-0.579l-0.15,-1.563l-0.088,1.575c-0.285,0.063 -0.502,0.3 -0.537,0.595l-1.604,0.146l1.615,0.087c0.059,0.27 0.278,0.482 0.553,0.532l0.145,1.61l0.087,-1.607c0.291,-0.047 0.521,-0.272 0.574,-0.558Z" style="fill:#fff;fill-rule:nonzero;"/><path d="M715.086,94.371l1.569,-0.15l-1.566,-0.089c-0.048,-0.303 -0.292,-0.54 -0.598,-0.579l-0.15,-1.562l-0.088,1.575c-0.283,0.063 -0.501,0.3 -0.536,0.594l-1.604,0.146l1.616,0.087c0.058,0.271 0.277,0.483 0.552,0.533l0.146,1.61l0.087,-1.607c0.287,-0.048 0.517,-0.271 0.572,-0.558Z" style="fill:#fff;fill-rule:nonzero;"/><path d="M651.119,118.522l1.569,-0.151l-1.566,-0.088c-0.049,-0.303 -0.292,-0.54 -0.598,-0.579l-0.15,-1.561l-0.088,1.574c-0.285,0.063 -0.502,0.3 -0.537,0.594l-1.604,0.146l1.615,0.087c0.059,0.271 0.278,0.484 0.553,0.533l0.146,1.61l0.087,-1.607c0.288,-0.048 0.52,-0.272 0.573,-0.558Z" style="fill:#fff;fill-rule:nonzero;"/><path d="M710.101,106.742l1.569,-0.15l-1.566,-0.088c-0.048,-0.303 -0.292,-0.54 -0.598,-0.58l-0.15,-1.562l-0.088,1.574c-0.284,0.063 -0.501,0.3 -0.536,0.594l-1.604,0.146l1.615,0.087c0.059,0.271 0.278,0.482 0.553,0.533l0.146,1.61l0.087,-1.607c0.287,-0.047 0.518,-0.271 0.572,-0.557Z" style="fill:#fff;fill-rule:nonzero;"/><path d="M684.107,63.1c-6.544,2.544 -12.928,4.815 -18.314,6.5c-10.945,3.427 -40.892,12.705 -58.982,24.401l1.515,0.589c11.022,-6.227 18.187,-8.183 25.073,-10.35c7.489,-2.356 31.697,-8.021 42.659,-11.106c3.703,-1.042 8.041,-2.406 12.635,-4.067c-1.069,-1.49 -2.196,-2.985 -3.383,-4.477c-0.396,-0.504 -0.799,-1 -1.203,-1.49Zm7.996,11.021c-1.584,1.07 -2.912,1.924 -3.842,2.463c-5.385,3.113 -31.638,21.035 -37.61,25.157c-5.973,4.123 -22.55,19.773 -27.43,24.317l-0.168,1.849c15.734,-14.135 20.67,-17.621 26.925,-22.379c7.74,-5.89 23.754,-16.786 29.196,-20.278c5.203,-3.337 9.895,-6.407 14.106,-9.216c-0.069,-0.115 -0.138,-0.23 -0.206,-0.346c-0.317,-0.521 -0.641,-1.042 -0.971,-1.567Zm24.596,-25.976c-7.665,4.493 -19.746,9.915 -31.467,14.516c0.28,0.344 0.559,0.69 0.837,1.04c1.31,1.649 2.545,3.309 3.708,4.971c9.213,-3.394 19.322,-7.949 27.344,-13.461c-3.822,3.621 -16.455,13.063 -24.158,18.325c0.397,0.647 0.781,1.293 1.153,1.937c11.67,-7.809 19.523,-13.558 24.099,-17.401c6.31,-5.301 20.698,-17.165 26.167,-33.067c-9.593,12.202 -20.935,19.184 -27.683,23.14Z" style="fill:#fc3d21;fill-rule:nonzero;"/><path d="M663.516,90.521c-1.241,-1.562 -2.958,-3.654 -4.247,-5.277c-1.723,-2.169 -3.318,-4.361 -4.779,-6.55c-0.477,0.119 -0.952,0.239 -1.427,0.358c1.764,2.753 3.723,5.501 5.857,8.188c1.56,1.963 2.977,3.544 3.704,4.527c0.147,0.199 0.439,0.639 0.833,1.225c0.454,-0.308 0.913,-0.62 1.375,-0.934c-0.447,-0.486 -0.889,-0.998 -1.316,-1.537Zm9.059,8.224c-1.02,-0.965 -3.492,-2.576 -6.065,-4.994c-0.568,0.39 -1.142,0.785 -1.717,1.183c1.662,2.342 3.925,5.219 5.698,6.057c2.67,1.265 3.389,-1.01 2.084,-2.246Zm13.494,-35.044c-14.713,-18.519 -32.687,-28.693 -40.436,-22.536c-6.019,4.782 -3.548,18.758 4.748,33.439c0.43,-0.148 0.854,-0.292 1.275,-0.435c-8.373,-14.304 -10.665,-27.596 -4.988,-32.108c7.134,-5.668 24.358,4.545 38.645,22.527c2.958,3.722 5.558,7.458 7.759,11.1c8.431,13.953 11.018,26.571 5.193,31.722c-1.782,1.576 -7.229,2.194 -14.364,-1.017c-0.099,0.125 0.06,0.463 0.185,0.545c6.159,2.477 12.059,3.421 15.037,1.055c7.158,-5.688 1.659,-25.773 -13.054,-44.292Z" style="fill:#fff;fill-rule:nonzero;"/><path d="M622.967,65.898l9.424,0l7.909,13.42c0,0 0,-9.718 0,-10.475c0,-1.178 -1.493,-2.714 -2.019,-2.945c0.631,0 6.142,0 6.521,0c-0.4,0.105 -1.683,1.662 -1.683,2.945c0,0.631 0,14.724 0,15.397c0,0.947 1.367,2.251 2.019,2.756l-9.087,0l-8.035,-13.483c0,0 0,10.054 0,10.601c0,1.052 1.031,2.062 2.103,2.924l-6.941,0c0.988,-0.421 1.935,-1.746 2.019,-2.798c0.084,-1.051 0,-14.619 0,-15.208c0,-1.283 -1.241,-2.335 -2.23,-3.134Z" style="fill:#fff;fill-rule:nonzero;"/><path d="M709.168,86.996l12.537,0c-0.694,-0.168 -1.473,-0.989 -1.893,-2.083c-0.421,-1.093 -7.068,-19.015 -7.068,-19.015l-4.766,0c-1.352,0.973 -2.801,2 -4.348,3.081c-0.004,0.039 -0.008,0.078 -0.015,0.116c-0.208,1.262 -3.938,14.772 -4.165,15.44c-0.315,0.925 -1.935,1.956 -2.587,2.503l6.752,0c-0.673,-0.757 -1.22,-1.493 -1.094,-2.335c0.126,-0.841 0.505,-2.524 0.505,-2.524l6.984,0c0.315,0.841 0.551,1.597 0.673,2.314c0.147,0.862 -0.737,1.83 -1.515,2.503Zm-5.511,-7.509l2.356,-7.699l3.113,7.699l-5.469,0Zm-1.062,-12.821c0.347,-0.255 0.695,-0.511 1.041,-0.768l-1.83,0c0.182,0.168 0.484,0.433 0.789,0.768Z" style="fill:#fff;fill-rule:nonzero;"/><path d="M654.646,84.703c0.126,-0.841 0.505,-2.524 0.505,-2.524l6.983,0c0.316,0.841 0.551,1.597 0.673,2.314c0.148,0.862 -0.736,1.83 -1.514,2.503l11.038,0c0.23,-0.154 0.458,-0.309 0.687,-0.461c-0.428,-0.379 -0.822,-0.947 -1.081,-1.622c-0.421,-1.093 -7.068,-19.015 -7.068,-19.015l-10.938,0c0.526,0.484 2.04,1.788 1.809,3.197c-0.206,1.262 -3.938,14.772 -4.165,15.44c-0.316,0.925 -1.935,1.956 -2.587,2.503l6.752,0c-0.673,-0.757 -1.22,-1.493 -1.094,-2.335Zm3.492,-12.915l3.113,7.699l-5.469,0l2.356,-7.699Z" style="fill:#fff;fill-rule:nonzero;"/><path d="M692.774,76.371c-2.059,1.371 -4.231,2.803 -6.52,4.298c1.027,0.497 1.844,1.123 1.923,1.931c0.146,1.517 -2.903,2.25 -5.659,1.935c-0.551,-0.063 -1.092,-0.208 -1.608,-0.401c-0.572,0.369 -1.15,0.74 -1.736,1.116c-0.596,0.383 -1.32,0.854 -2.146,1.398l0,2.178c0.547,-1.073 1.743,-2.033 2.672,-2.082c0.399,-0.022 1.788,1.262 7.509,0.946c2.777,-0.153 8.141,-3.113 8.057,-6.521c-0.051,-2.013 -1.103,-3.584 -2.492,-4.798Zm-15.747,5.261l0,2.219c0.506,-0.338 1.005,-0.671 1.495,-0.995c-0.77,-0.535 -1.316,-1.036 -1.495,-1.224Zm13.79,-6.654c-0.532,-0.315 -1.072,-0.592 -1.59,-0.836c-2.692,-1.262 -5.511,-1.493 -6.1,-3.197c-0.415,-1.202 0.757,-2.314 3.618,-2.272c2.861,0.042 5.511,1.746 6.226,2.356l0,-5.427c-0.21,0.21 -1.133,1.269 -1.977,1.094c-1.62,-0.337 -4.375,-0.776 -7.53,-0.757c-3.618,0.021 -6.732,2.817 -6.837,6.352c-0.147,4.943 3.808,6.29 6.037,7.068c0.23,0.08 0.493,0.165 0.777,0.257c2.139,-1.392 3.83,-2.463 4.82,-3.034c0.665,-0.383 1.536,-0.932 2.556,-1.604Z" style="fill:#fff;fill-rule:nonzero;"/></g></svg>